# xmcd CD database file
#
# Track frame offsets:
#	150
#	16742
#	38508
#	58468
#	78373
#	94873
#	117031
#	131278
#	154433
#	174169
#	193782
#	214888
#
# Disc length: 3223 seconds
#
# Revision: 0
# Processed by: cddbd v1.5.2PL0 Copyright (c) Steve Scherf et al.
# Submitted via: CDex 1.50
#
DISCID=980c950c
DTITLE=Enigma - A Posteriori
DYEAR=2006
DGENRE=New Age
TTITLE0=Eppur Si Muove
TTITLE1=Enigma - Feel Me Heaven
TTITLE2=Enigma - Dreaming Of Andromeda
TTITLE3=Enigma - Dancing With Mephisto
TTITLE4=Enigma - Northern Lights
TTITLE5=Enigma - Invisible Love
TTITLE6=Enigma - Message From Io
TTITLE7=Enigma - Hello And Welcome (New Version
TTITLE8=Enigma - 20,000 Miles Over The Sea
TTITLE9=Enigma - Sitting On The Moon
TTITLE10=Enigma - The Alchemist
TTITLE11=Enigma - Goodbye Milky Way
EXTD=YEAR: 2006
EXTT0=
EXTT1=
EXTT2=
EXTT3=
EXTT4=
EXTT5=
EXTT6=
EXTT7=
EXTT8=
EXTT9=
EXTT10=
EXTT11=
PLAYORDER=
